<svg xmlns="http://www.w3.org/2000/svg" viewBox="0 0 430 430">
  <defs>
    <style>
      .cls-1 {
        isolation: isolate;
      }

      .cls-2, .cls-3 {
        fill: #ffc738;
      }

      .cls-3, .cls-4 {
        mix-blend-mode: multiply;
      }

      .cls-3 {
        opacity: 0.5;
      }

      .cls-4, .cls-5 {
        fill: #b26836;
      }

      .cls-4 {
        opacity: 0.3;
      }

      .cls-6 {
        fill: #121331;
      }
    </style>
  </defs>
  <g class="cls-1">
    <g id="Warstwa_1" data-name="Warstwa 1">
      <g>
        <g>
          <path class="cls-2" d="M269.59,108.14v1.6c-1.61-.08-3.24-.11-4.87-.11a119,119,0,0,0-33.21,4.69l-2.52.75-.89.28c-1,.34-2.08.69-3.11,1.05q-3.74,1.32-7.35,2.89-2.41,1-4.75,2.16c-.69.32-1.37.65-2,1h0l-1.92,1a119.62,119.62,0,0,0-21.16,14.3H100.19c-.67,0-1.33,0-2-.08H98.1a26.54,26.54,0,0,1-22.65-16.85l-.18-.48c-.19-.51-.36-1-.52-1.55l-.18-.63a2.79,2.79,0,0,1-.1-.39c-.08-.29-.15-.58-.21-.88s-.13-.59-.19-.89-.11-.62-.16-.93-.12-.88-.16-1.32-.08-.85-.1-1.27,0-.91,0-1.37v-3q0-.65,0-1.29a26.58,26.58,0,0,1,26.54-25.19H243a26.13,26.13,0,0,1,5.64.61,26.51,26.51,0,0,1,16.2,10.83,26.11,26.11,0,0,1,3.21,6.21c.12.33.23.67.33,1s.25.84.35,1.27c0,.1.06.2.08.3h0l0,.17c0,.1.06.2.08.3s.08.34.11.5c.13.65.25,1.31.33,2,.06.48.11,1,.14,1.45,0,.19,0,.37,0,.56Q269.59,107.5,269.59,108.14Z"/>
          <path class="cls-2" d="M173.37,306H72.84a25.74,25.74,0,0,1-4-.31h0a25.43,25.43,0,0,1-3.81-.89l-.19-.06-.12,0-.13-.05a25.86,25.86,0,0,1-8.56-4.72l-.44-.38,0,0s0,0,0,0c-.21-.17-.4-.35-.6-.54l-.08-.07c-.42-.39-.82-.79-1.22-1.21l-.14-.15-.08-.09c-.39-.42-.77-.85-1.13-1.3l0,0-.51-.66-.12-.15-.73-1.05-.18-.27c-.19-.29-.38-.58-.56-.88l-.18-.3c-.14-.22-.26-.44-.38-.67s-.2-.38-.29-.58-.24-.45-.34-.68l0-.05c-.12-.27-.25-.54-.36-.82l-.09-.19a0,0,0,0,1,0,0c-.13-.29-.25-.59-.36-.89l-.12-.3c-.15-.41-.29-.82-.42-1.24s-.18-.6-.26-.9l-.09-.36c-.06-.21-.11-.42-.16-.64l-.06-.29s0,0,0-.06a1.16,1.16,0,0,1,0-.18,1.31,1.31,0,0,1-.06-.27s0-.07,0-.1q-.1-.53-.18-1.05c0-.21-.07-.43-.09-.65s0-.39-.07-.59c0,0,0-.05,0-.07s0-.3,0-.45a2.11,2.11,0,0,1,0-.25c0-.07,0-.14,0-.21s0-.18,0-.27,0-.25,0-.37a.28.28,0,0,1,0-.09c0-.37,0-.73,0-1.1v-3c0-.36,0-.72,0-1.08a.22.22,0,0,1,0-.08c0-.15,0-.29,0-.43s0-.17,0-.25,0-.13,0-.2a.49.49,0,0,1,0-.12c0-.14,0-.28,0-.42a1,1,0,0,1,0-.17s0-.07,0-.1c0-.25.06-.5.1-.75l0-.24c0-.1,0-.2,0-.3a6.88,6.88,0,0,1,.13-.77s0-.07,0-.1l.15-.75a0,0,0,0,0,0,0c.06-.28.13-.57.2-.85a1.21,1.21,0,0,1,.05-.18.27.27,0,0,1,0-.12c.08-.32.17-.63.27-.94s.22-.67.34-1,.22-.61.34-.91a.87.87,0,0,1,.07-.17c.09-.24.19-.47.3-.71a2.22,2.22,0,0,1,.14-.32c.12-.27.25-.53.38-.79a26.88,26.88,0,0,1,2.14-3.58,26.59,26.59,0,0,1,18.28-11,.08.08,0,0,1,.08,0,27.59,27.59,0,0,1,3.3-.2h74.25v0c.24,1.31.49,2.62.76,3.92,0,.16.07.32.11.48.07.34.14.67.22,1l.18.8c.07.31.14.62.22.93s.21.88.33,1.32.21.86.33,1.29l0,.1c.09.37.19.74.29,1.11l.15.54c.07.24.13.47.21.71.15.54.31,1.08.48,1.63,0,.16.09.31.14.47l.17.56c.26.83.52,1.65.8,2.46s.5,1.45.76,2.17c0,.07.05.15.08.22l.3.82.06.15c0,.12.08.23.13.35.13.36.26.71.4,1.06s.23.6.35.9.14.37.23.56l.06.14q.18.5.39,1l.09.2c0,.09.07.18.11.27l0,.09h0c.16.39.33.77.5,1.16a.35.35,0,0,0,.06.14l.21.49c.18.42.36.83.55,1.24s.44,1,.67,1.45c.09.22.19.43.29.64s.28.58.43.86l.28.58a.13.13,0,0,1,0,.05c.24.51.49,1,.76,1.53l.25.47c.25.5.51,1,.78,1.51.16.31.32.61.5.91s.19.34.28.51l.12.22c.3.56.61,1.11.94,1.66.46.8.92,1.6,1.41,2.38l.11.18c.15.26.31.52.47.77.32.51.64,1,1,1.54l.14.22c.36.55.71,1.1,1.08,1.64l.9,1.33c.36.52.72,1,1.09,1.55l.55.78s0,0,0,0l.18.25.29.38h0l.21.28.62.85.25.33c.32.43.65.85,1,1.27l.13.16c.27.35.55.69.83,1l.18.23.79,1c.12.16.26.32.39.48s.4.5.61.74A0,0,0,0,0,173.37,306Z"/>
          <path class="cls-2" d="M147.09,249.86v0H114.19l-.91,0h-.17a26.54,26.54,0,0,1-25.49-26.54v-3a26.55,26.55,0,0,1,26.26-26.56h36.67a120.23,120.23,0,0,0-3.46,56.08Z"/>
          <path class="cls-2" d="M187.73,137.68l-.09.08a119.42,119.42,0,0,0-37.09,56H72.84c-.49,0-1,0-1.46,0a26.57,26.57,0,0,1-25.1-26.53v-3a26.56,26.56,0,0,1,26.56-26.57Z"/>
          <path class="cls-3" d="M173.16,306H72.62a26.56,26.56,0,0,1-26.56-26.57v-3a26.57,26.57,0,0,1,26.56-26.57h74.25a0,0,0,0,0,0,0A118.82,118.82,0,0,0,173.16,306Z"/>
          <path class="cls-3" d="M187.51,137.67a119.45,119.45,0,0,0-37.18,56.1H72.62A26.57,26.57,0,0,1,46.06,167.2v-3a26.56,26.56,0,0,1,26.56-26.57Z"/>
          <path class="cls-4" d="M269.59,108.11v1.6c-1.61-.08-3.24-.11-4.87-.11a119,119,0,0,0-33.21,4.69q-1.26.36-2.52.75l-.89.28c-1,.34-2.08.69-3.11,1.05q-3.74,1.32-7.35,2.89-2.41,1-4.75,2.16c-.69.32-1.37.65-2,1h0q-1,.48-1.92,1a119.62,119.62,0,0,0-21.16,14.3h-.09a119.59,119.59,0,0,0-40.55,112.1v0h0a0,0,0,0,0,0,0c.24,1.31.49,2.62.76,3.92,0,.16.07.32.11.48.07.34.14.67.22,1l.18.8c.07.31.14.62.22.93s.21.88.33,1.32.21.86.33,1.29l0,.1c.09.37.19.74.29,1.11l.15.54c.07.24.13.47.21.71.15.54.31,1.08.48,1.63,0,.16.09.31.14.47l.17.56c.26.83.52,1.65.8,2.46s.5,1.45.76,2.17c0,.07.05.15.08.22l.3.82.06.15c0,.12.08.23.13.35.13.36.26.71.4,1.06s.23.6.35.9.14.37.23.56l.06.14q.18.49.39,1l.09.2c0,.09.07.18.11.27l0,.09h0c.16.39.33.77.5,1.16a.35.35,0,0,0,.06.14l.21.49c.18.42.36.83.55,1.24s.44,1,.67,1.45c.09.22.19.43.29.64s.28.58.43.86l.28.58a.13.13,0,0,1,0,.05c.33.67.67,1.34,1,2,.42.82.85,1.62,1.28,2.42.1.17.19.34.28.51.35.63.7,1.26,1.06,1.88.46.8.93,1.6,1.41,2.38l.11.18q.7,1.17,1.44,2.31l.34.53c.29.45.58.89.88,1.33l.9,1.33.35.52c.24.34.48.69.74,1l.55.78v0l.47.63h0a1.86,1.86,0,0,0,.21.28c.2.29.41.57.62.85l.25.33c.32.43.65.85,1,1.27l.13.16c.27.35.55.69.83,1l.18.23.18.23c.2.25.4.49.61.73s.26.32.39.48.4.5.61.74v0h-16a120.18,120.18,0,0,1-9-9.57l0,0c-.21-.24-.41-.49-.61-.74s-.67-.8-1-1.21-.8-1-1.19-1.5l-.13-.16c-.32-.42-.65-.84-1-1.27l-.25-.33c-.39-.5-.77-1-1.13-1.52l-.18-.25v0c-.45-.6-.88-1.2-1.29-1.81a118.11,118.11,0,0,1-12-21.73q-1.66-3.93-3-8a115.52,115.52,0,0,1-4.5-17.53,119.12,119.12,0,0,1,34.41-106.52l1.53-1.46,1.56-1.43c.48-.44,1-.87,1.45-1.29s1.1-1,1.65-1.42l.09-.08a119,119,0,0,1,29.88-18.42q3.63-1.56,7.38-2.86c1-.36,2.07-.71,3.11-1l.89-.28q1.25-.39,2.52-.75a119.24,119.24,0,0,1,33-4.62q5.89,0,11.66.57a118.39,118.39,0,0,1,17.07,2.93c.35.09.7.17,1.05.27.06.31.1.63.14.94.06.48.11,1,.14,1.45,0,.19,0,.37,0,.56Q269.59,107.47,269.59,108.11Z"/>
        </g>
        <g>
          <path class="cls-2" d="M383.79,229A119.2,119.2,0,0,1,264.5,348.28a120,120,0,0,1-28.17-3.34c-1.55-.38-3.08-.78-4.6-1.21s-3.13-.93-4.67-1.44l-1.3-.44-.37-.13a119.44,119.44,0,0,1-52-35.74h0a0,0,0,0,1,0,0c-.21-.24-.41-.49-.61-.74s-.27-.32-.39-.48-.41-.48-.61-.73l-.18-.23-.18-.23c-.28-.35-.56-.69-.83-1l-.13-.16c-.32-.42-.65-.84-1-1.27l-.25-.33c-.39-.5-.77-1-1.13-1.52l-.18-.25s0,0,0,0c-.45-.6-.88-1.2-1.29-1.81-.12-.17-.24-.34-.35-.52l-.9-1.33c-.3-.44-.59-.88-.88-1.33l-.2-.31a117.36,117.36,0,0,1-9.69-18.24q-1.67-3.93-3-8a115.52,115.52,0,0,1-4.5-17.53A119,119,0,0,1,161.35,169q1.65-2.85,3.47-5.59l.9-1.34q2.28-3.39,4.82-6.61l1.19-1.5.12-.15,1.26-1.52c.44-.53.88-1,1.33-1.56s.89-1,1.35-1.53c.85-.94,1.72-1.88,2.61-2.79l1.47-1.51a.83.83,0,0,1,.13-.14c.48-.48,1-1,1.45-1.43L182.9,142a.3.3,0,0,0,.08-.08l1.56-1.43,1.45-1.29.83-.72.82-.7.09-.08c.63-.53,1.25-1.05,1.89-1.56l1.51-1.2q1.74-1.36,3.51-2.64l1.56-1.11.75-.52c.56-.39,1.12-.77,1.69-1.14,1.14-.76,2.3-1.51,3.48-2.23l1.43-.86.51-.3q.65-.39,1.29-.75c1.23-.71,2.48-1.39,3.74-2.05.5-.27,1-.53,1.52-.79l1.55-.77,1.41-.68c1.33-.63,2.68-1.24,4-1.82q3.63-1.56,7.38-2.86c1-.36,2.07-.71,3.11-1.05l.89-.28,2.52-.75a119.24,119.24,0,0,1,33-4.62q5.89,0,11.66.57a118.39,118.39,0,0,1,17.07,2.93c2.49.61,4.94,1.31,7.36,2.08q4.68,1.47,9.19,3.32A119.3,119.3,0,0,1,383.79,229Z"/>
          <path class="cls-3" d="M383.79,229A119.2,119.2,0,0,1,264.5,348.28a120,120,0,0,1-28.17-3.34c-1.55-.38-3.08-.78-4.6-1.21s-3.13-.93-4.67-1.44l-1.3-.44-.37-.13a119.44,119.44,0,0,1-52-35.74h0a0,0,0,0,1,0,0c-.21-.24-.41-.49-.61-.74s-.27-.32-.39-.48-.41-.48-.61-.73l-.18-.23-.18-.23c-.28-.35-.56-.69-.83-1l-.13-.16c-.32-.42-.65-.84-1-1.27l-.25-.33c-.39-.5-.77-1-1.13-1.52l-.18-.25s0,0,0,0c-.45-.6-.88-1.2-1.29-1.81-.12-.17-.24-.34-.35-.52l-.9-1.33c-.3-.44-.59-.88-.88-1.33l-.2-.31a117.36,117.36,0,0,1-9.69-18.24q-1.67-3.93-3-8a115.52,115.52,0,0,1-4.5-17.53A119,119,0,0,1,161.35,169q1.65-2.85,3.47-5.59l.9-1.34q2.28-3.39,4.82-6.61l1.19-1.5.12-.15,1.26-1.52c.44-.53.88-1,1.33-1.56s.89-1,1.35-1.53c.85-.94,1.72-1.88,2.61-2.79l1.47-1.51a.83.83,0,0,1,.13-.14c.48-.48,1-1,1.45-1.43L182.9,142a.3.3,0,0,0,.08-.08l1.56-1.43,1.45-1.29.83-.72.82-.7.09-.08c.63-.53,1.25-1.05,1.89-1.56l1.51-1.2q1.74-1.36,3.51-2.64l1.56-1.11.75-.52c.56-.39,1.12-.77,1.69-1.14,1.14-.76,2.3-1.51,3.48-2.23l1.43-.86.51-.3q.65-.39,1.29-.75c1.23-.71,2.48-1.39,3.74-2.05.5-.27,1-.53,1.52-.79l1.55-.77,1.41-.68c1.33-.63,2.68-1.24,4-1.82q3.63-1.56,7.38-2.86c1-.36,2.07-.71,3.11-1.05l.89-.28,2.52-.75a119.24,119.24,0,0,1,33-4.62q5.89,0,11.66.57a118.39,118.39,0,0,1,17.07,2.93c2.49.61,4.94,1.31,7.36,2.08q4.68,1.47,9.19,3.32A119.3,119.3,0,0,1,383.79,229Z"/>
          <path class="cls-2" d="M367.64,288.94a119.73,119.73,0,0,1-56.25,49.77l-21.23-24L286.88,311l-101-114.27L182.56,193l-21.12-23.88-.09-.11a119.75,119.75,0,0,1,56.26-49.77l.13.14,21.09,23.87,3.28,3.71,101,114.26,3.28,3.71Z"/>
          <path class="cls-5" d="M264.5,317.48A88.5,88.5,0,1,1,353,229,88.6,88.6,0,0,1,264.5,317.48Zm0-170A81.5,81.5,0,1,0,346,229,81.59,81.59,0,0,0,264.5,147.49Z"/>
        </g>
        <path class="cls-6" d="M264.5,351.93a122.72,122.72,0,0,1-92.95-42.48H72.62a29.42,29.42,0,0,1-4.4-.33h0a30.16,30.16,0,0,1-23.3-18h0a30.14,30.14,0,0,1-2.19-8.51h0c-.08-.65-.11-1.34-.15-2h0c0-1.46,0-3.88,0-5.34h0c0-.68.08-1.34.15-2a30.21,30.21,0,0,1,2.7-9.63h0A30,30,0,0,1,50.56,256h0A30.09,30.09,0,0,1,64,247.6h0a30,30,0,0,1,4.1-.91h0c2.82-.63,23.16-.22,26.45-.33a30,30,0,0,1-10.68-23c-.37-7.35,1.34-14.86,5.85-20.78h0a29.9,29.9,0,0,1,4.93-5.25H72.62c-17.79.09-31.45-15.47-30.06-33a30.1,30.1,0,0,1,30.06-30.07h8A30.3,30.3,0,0,1,69.9,111.1c-1.42-17.54,12.25-33.17,30.07-33H242.8a29.85,29.85,0,0,1,6.67.75,30.19,30.19,0,0,1,22.68,22.83,28.37,28.37,0,0,1,.67,4.68,122.88,122.88,0,0,1,19.62,2.92h0C433.44,145.81,410.33,348.26,264.5,351.93Zm-94.22-55.35a116,116,0,0,0,94.22,48.35c136.92-2.39,159.36-195.79,26.35-228.86C200.61,95.55,124.16,182.34,155.72,269.2c.54,1.47,1.11,2.9,1.7,4.33l0-.09A117,117,0,0,0,170.28,296.58ZM63.54,308.05Zm7.8-5.64c.42,0,.84,0,1.28,0h93.3A122.27,122.27,0,0,1,144,253.37c-18.23.06-54.45-.13-72.88,0a23.07,23.07,0,0,0-21,18h0a37.92,37.92,0,0,0-.43,10.48h0c.07.65.17,1.3.29,1.94h0a23.19,23.19,0,0,0,15.54,17.55h0A23.52,23.52,0,0,0,71.34,302.41Zm-.62,0Zm-2-.26h0Zm0,0Zm0,0h0Zm0,0h0Zm0,0Zm0,0h0Zm-14.49-8.91,0,0ZM159,292.18h0Zm-.43-.85h0Zm0,0h0ZM50,283.94h0Zm0,0,0,0Zm-.34-2.49Zm-.09-6.34h0a2.1,2.1,0,0,0,.06-.31A1.7,1.7,0,0,1,49.55,275.07Zm.12-.94,0,.1Zm99.16-3.4,0,0Zm0,0h0ZM50.72,269.1h0Zm0,0h0Zm0,0Zm.12-.3v0Zm.15-.53h0Zm0,0Zm104.34,0Zm-103.94-.85Zm.46-1h0Zm2.4-3.94ZM48.13,259l0,0Zm.13-.16h0Zm0,0Zm0,0h0Zm0,0ZM58.66,258h0Zm.32-.23h0Zm7.18-3.54-.09,0,.09,0Zm2.51-.62h0Zm0,0h0a2.34,2.34,0,0,0,.38,0A2.43,2.43,0,0,1,68.68,253.65Zm2-.25h0Zm-3.89-6.48h0Zm0,0h0Zm0,0h0Zm46.3-.57h29.65a124,124,0,0,1,2.91-49.08c-.28,0-32,0-32.25,0a23.2,23.2,0,0,0-2.36.18l.08,0a23.05,23.05,0,0,0-20.25,22.9C89.65,233.78,99.4,246,113.12,246.35Zm-13-44.5h0Zm4.12-2.46h0Zm.4-.16Zm4.1-1.36-.19,0Zm2.41-.43Zm1.3-.14Zm0,0h0Zm1.5-7h33.8a123,123,0,0,1,30.7-49.1H72.62c-14-.08-24.36,12.34-23.06,26a23.09,23.09,0,0,0,23.06,23.07Zm-14-56.1h86.27a122.84,122.84,0,0,1,79.53-28.12,23,23,0,0,0-23-21H100c-14-.12-24.4,12.36-23.07,26C76.74,123.59,87.41,134.38,100,134.17Zm-22.26-17v0Z"/>
      </g>
    </g>
  </g>
</svg>
